<?xml version="1.0" encoding="UTF-8" standalone="no"?>
<!-- Created with Inkscape (http://www.inkscape.org/) -->

<svg
   width="195.51051mm"
   height="105.28971mm"
   viewBox="0 0 195.51051 105.28971"
   version="1.1"
   id="svg1"
   xml:space="preserve"
   inkscape:export-filename="bitmap.svg"
   inkscape:export-xdpi="96"
   inkscape:export-ydpi="96"
   sodipodi:docname="map.svg"
   xmlns:inkscape="http://www.inkscape.org/namespaces/inkscape"
   xmlns:sodipodi="http://sodipodi.sourceforge.net/DTD/sodipodi-0.dtd"
   xmlns="http://www.w3.org/2000/svg"
   xmlns:svg="http://www.w3.org/2000/svg"><sodipodi:namedview
     id="namedview1"
     pagecolor="#ffffff"
     bordercolor="#666666"
     borderopacity="1.0"
     inkscape:showpageshadow="2"
     inkscape:pageopacity="0.0"
     inkscape:pagecheckerboard="0"
     inkscape:deskcolor="#d1d1d1"
     inkscape:document-units="mm"
     class="spot"
     inkscape:zoom="0.83526678"
     inkscape:cx="441.17641"
     inkscape:cy="196.94307"
     inkscape:window-width="1920"
     inkscape:window-height="1057"
     inkscape:window-x="1912"
     inkscape:window-y="-8"
     inkscape:window-maximized="1"
     inkscape:current-layer="svg1" /><defs
     id="defs1" /><path
     style="fill:#ffffff;stroke:#1a1a1a;stroke-width:0.7;stroke-dasharray:none"
     d="M 50.474645,102.20987 47.231229,99.062111 V 87.633919 76.205726 l -3.959564,-3.950057 -3.959563,-3.950058 v -4.869179 -4.869183 l 2.270889,-2.341978 2.270887,-2.341975 h 3.830937 3.830936 l 4.584899,4.593092 4.584898,4.593093 h 2.214004 2.214004 l 2.303997,2.288619 2.303995,2.28862 v 2.546619 2.546618 l -4.117946,4.108804 -4.117946,4.108805 v 2.400207 2.400205 l -3.08846,3.023938 c -2.434828,2.383965 -3.339039,3.069786 -4.272478,3.240577 -0.701892,0.128421 -1.322121,0.474684 -1.523175,0.850355 -0.186534,0.348547 -0.423005,2.11441 -0.525489,3.924142 -0.182446,3.22175 -0.168836,3.31122 0.652164,4.28692 0.95233,1.13178 1.252198,2.05127 1.097195,3.36433 -0.10459,0.886 -0.190714,0.82847 -3.350768,-2.23837 z"
     id="path1"
     class="map"
     inkscape:export-filename="map.svg"
     inkscape:export-xdpi="96"
     inkscape:export-ydpi="96" /><path
     style="fill:#ffffff;stroke:#000000;stroke-width:0.7;stroke-dasharray:none"
     d="m 25.292666,44.457007 -7.203823,-7.208933 v -4.924385 -4.92438 l 1.129575,-1.091626 c 1.567137,-1.514488 2.442162,-3.009984 2.20267,-3.764558 -0.10885,-0.342956 -1.473312,-1.640639 -3.032137,-2.88374 -2.67144,-2.130366 -2.834228,-2.32912 -2.834228,-3.460401 0,-1.703141 -0.550216,-2.013846 -3.845214,-2.171382 L 8.870951,13.891889 6.3890596,16.307131 c -1.3650401,1.328384 -2.6595606,2.415242 -2.8767124,2.415242 -0.5174647,0 -3.16234723,-2.650308 -3.16234723,-3.168835 0,-0.22072 1.74616733,-2.091875 3.88037193,-4.158123 L 8.1107438,7.6386002 20.95055,7.6370921 33.790356,7.635584 35.51092,5.893376 37.231487,4.1511683 h 9.203614 9.20361 l 2.768047,2.7809288 2.768042,2.7809288 -2.061927,2.2591981 c -2.75276,3.016124 -2.736641,3.241133 0.472194,6.591755 1.393766,1.455351 2.534121,2.741668 2.534121,2.85848 0,0.116812 -0.949926,1.196337 -2.110942,2.398942 l -2.110943,2.186557 h -3.356555 -3.356557 l -5.695169,5.701771 -5.695169,5.70177 -3.804484,0.0019 c -2.092462,0.0011 -4.327067,0.146916 -4.965782,0.324316 -1.032415,0.286755 -1.185293,0.46455 -1.37746,1.60197 -0.118886,0.703681 -0.117901,2.446446 0.0021,3.872817 l 0.21834,2.593404 2.544566,2.580137 c 1.44199,1.462148 2.450854,2.731767 2.328291,2.930075 -0.118948,0.192469 -0.672293,0.349941 -1.229645,0.349941 -0.899277,0 -1.824466,-0.811665 -8.217198,-7.208933 z"
     id="path3"
     class="map" /><path
     style="fill:#ffffff;stroke:#000000;stroke-width:0.7;stroke-dasharray:none"
     d="m 107.68568,87.781588 -0.11071,-2.846454 -3.88037,-3.889377 -3.880371,-3.889378 v -4.786498 c 0,-2.632575 -0.08791,-5.226039 -0.195352,-5.763262 -0.109072,-0.545362 -0.948497,-1.809012 -1.900592,-2.861109 l -1.705237,-1.884352 v -2.514394 c 0,-2.033616 -0.110765,-2.614636 -0.579282,-3.038636 -0.921848,-0.83426 -1.479955,-0.637201 -3.504882,1.237525 -2.324455,2.152036 -2.063435,2.242309 -6.760549,-2.3382 l -3.409714,-3.325074 v -3.992837 -3.992833 l 4.359619,-4.351276 4.359619,-4.351277 h 4.546655 4.546656 l 1.88179,1.742207 c 1.03499,0.958215 2.14782,1.74221 2.47297,1.74221 0.32514,0 1.03354,-0.372232 1.57421,-0.827175 1.16545,-0.980662 2.65111,-1.372325 5.24457,-1.382622 3.01923,-0.01199 4.57146,-0.630711 4.58616,-1.828046 0.003,-0.217273 -0.51064,-0.965632 -1.14069,-1.663015 -1.11809,-1.237586 -1.19604,-1.267973 -3.25279,-1.267973 h -2.10724 l -3.15577,-3.167653 -3.15576,-3.167649 h -2.98831 -2.988307 l -2.001851,1.922274 c -1.101016,1.057251 -2.149957,1.830737 -2.330977,1.71886 -0.181022,-0.111876 -1.197107,-1.494282 -2.257972,-3.072013 l -1.928839,-2.868598 7.873338,-7.878066 7.873338,-7.8780656 h 7.8704 7.87041 l 2.42683,-2.216269 2.42684,-2.2162688 18.85744,-0.00108 18.85744,-0.00108 1.88075,1.9005902 1.88076,1.9005904 h 9.20236 9.20236 l 2.92382,2.9360286 c 1.6081,1.6148162 2.92382,3.1946072 2.92382,3.5106472 0,0.316039 -1.31261,1.832204 -2.91692,3.369255 l -2.91692,2.794637 -1.57353,-1.414738 c -3.01957,-2.714854 -5.66775,-3.687302 -8.56246,-3.144251 -1.65049,0.309632 -3.74959,2.37907 -3.61402,3.562943 0.13028,1.137677 1.4682,1.64651 4.39561,1.671729 l 2.07545,0.01788 3.52193,3.749335 3.52193,3.749338 -8.71821,8.683691 c -8.93118,8.895828 -10.55406,10.704062 -10.55406,11.759451 0,0.332729 0.73915,1.386512 1.64256,2.341737 l 1.64257,1.736773 -2.5715,2.599785 -2.57151,2.599785 -0.22264,4.038753 c -0.12245,2.221318 -0.31291,4.038756 -0.42326,4.038756 -0.11033,0 -1.58775,-1.392356 -3.28313,-3.094127 l -3.08252,-3.094125 v -5.248179 -5.24818 l -2.18655,-2.110941 c -2.80968,-2.712519 -3.12844,-2.758969 -5.47145,-0.797298 -2.31572,1.938837 -2.79524,2.928972 -2.79524,5.771766 0,1.745234 -0.11206,2.417543 -0.40295,2.417543 -0.22162,0 -1.57579,-1.178968 -3.00927,-2.619931 l -2.60632,-2.619928 V 45.42119 c 0,-4.079092 -0.13108,-4.208484 -4.26352,-4.208484 h -2.85549 l -4.29366,4.28544 -4.29366,4.285443 -4.5106,-4.285443 c -2.48083,-2.356993 -4.76913,-4.28544 -5.08511,-4.28544 -0.77127,0 -1.62299,0.98934 -1.62299,1.885236 0,0.512876 1.46784,2.214718 4.98905,5.784423 4.52896,4.591331 6.12905,5.951236 7.00232,5.951236 0.16639,0 0.92183,-0.518623 1.67875,-1.152496 l 1.37622,-1.152496 0.27605,3.050998 0.27606,3.050993 -4.47319,4.715099 -4.47319,4.715103 v 3.242492 3.242493 l -2.37574,2.4413 -2.37574,2.441294 v 2.702396 2.702399 l -2.99505,2.897439 c -1.64728,1.593593 -3.12981,2.897438 -3.29452,2.897438 -0.1647,0 -0.34928,-1.280903 -0.41017,-2.846453 z"
     id="path4"
     class="map" /><path
     style="fill:#ffffff;stroke:#000000;stroke-width:0.7;stroke-dasharray:none"
     d="m 181.71483,90.311277 -2.90709,-2.850885 h -3.16287 -3.16287 l -1.24517,1.275167 c -1.60289,1.641509 -1.68545,1.441585 -1.70402,-4.126053 l -0.0143,-4.276328 3.39722,-2.922365 3.39722,-2.922365 4.38489,-0.0077 4.38489,-0.0077 1.9252,-1.74221 c 1.05886,-0.958212 2.0484,-1.742207 2.19898,-1.742207 0.15058,0 1.55173,1.231948 3.11367,2.737665 l 2.8399,2.737662 v 3.531727 3.531725 l -4.85371,4.817387 c -2.66954,2.649564 -5.04072,4.817388 -5.2693,4.817388 -0.22857,0 -1.72377,-1.282898 -3.32268,-2.850885 z"
     id="path5"
     class="map" /><path
     style="fill:#ffffff;stroke:#000000;stroke-width:0.7;stroke-dasharray:none"
     d="M 67.405073,13.082461 C 66.592292,12.234099 66.552474,12.037632 66.522322,8.726941 66.477409,3.7953696 66.435642,3.6975704 64.323669,3.5786963 63.372535,3.5251615 62.486112,3.3741747 62.353839,3.243171 62.221565,3.1121673 62.624669,2.4076113 63.249625,1.6774912 L 64.38591,0.35 h 7.190444 7.190446 l 1.654294,1.8793729 c 1.554588,1.7661056 1.654291,1.9815968 1.654291,3.5755145 0,1.6059986 -0.08054,1.7754746 -1.515515,3.1888684 l -1.515514,1.4927262 h -3.325974 -3.325971 l -1.720567,1.742208 c -0.946312,0.958214 -1.876949,1.742208 -2.068082,1.742208 -0.191132,0 -0.730541,-0.399797 -1.198689,-0.888437 z"
     id="path6"
     class="map" /><path
     style="display:inline;fill:none;stroke:#000000;stroke-width:0.264583px;stroke-linecap:butt;stroke-linejoin:miter;stroke-opacity:1"
     d="M 60.083153,70.486664 41.317855,19.624191"
     id="line01"
     inkscape:label="line01"
     sodipodi:nodetypes="cc"
     class="line" /><path
     style="display:inline;fill:none;stroke:#000000;stroke-width:0.264583px;stroke-linecap:butt;stroke-linejoin:miter;stroke-opacity:1"
     d="M 41.091068,19.479362 128.99728,39.918457"
     id="line02"
     inkscape:label="line02"
     class="line" /><path
     style="display:inline;fill:none;stroke:#000000;stroke-width:0.264583px;stroke-linecap:butt;stroke-linejoin:miter;stroke-opacity:1"
     d="M 60.195622,70.387745 128.90099,39.853673"
     id="line03"
     inkscape:label="line03"
     sodipodi:nodetypes="cc"
     class="line" /><path
     d="m 59.591811,69.961938 c 0.39475,0.499004 0.540503,0.541516 0.646782,0.541516 0.123486,0 0.303654,-0.06478 0.684233,-0.540504 a 10.047899,10.047899 0 0 0 0.772292,-1.139713 c 0.303654,-0.506089 1.000033,-1.784471 1.000033,-2.61547 a 2.456558,2.456558 0 1 0 -4.913116,0 c 0,0.809743 0.72472,2.101283 1.035459,2.617494 a 11.499363,11.499363 0 0 0 0.774317,1.136677 z"
     id="spot01"
     style="display:inline;stroke-width:0.101218"
     inkscape:label="spot01"
     class="spot" /><path
     d="m 39.971628,22.028595 c 0.39475,0.499004 0.540503,0.541516 0.646782,0.541516 0.123486,0 0.303654,-0.06478 0.684233,-0.540504 a 10.047899,10.047899 0 0 0 0.772292,-1.139713 c 0.303654,-0.506089 1.000033,-1.784471 1.000033,-2.61547 a 2.456558,2.456558 0 1 0 -4.913116,0 c 0,0.809743 0.72472,2.101283 1.035459,2.617494 a 11.499363,11.499363 0 0 0 0.774317,1.136677 z"
     id="spot02"
     style="display:inline;stroke-width:0.101218"
     inkscape:label="spot02"
     class="spot" /><path
     d="m 127.99011,42.099307 c 0.39475,0.499004 0.5405,0.541516 0.64678,0.541516 0.12349,0 0.30365,-0.06478 0.68423,-0.540504 a 10.047899,10.047899 0 0 0 0.7723,-1.139713 c 0.30365,-0.506089 1.00003,-1.784471 1.00003,-2.61547 a 2.45656,2.45656 0 1 0 -4.91312,0 c 0,0.809743 0.72472,2.101283 1.03546,2.617494 a 11.499363,11.499363 0 0 0 0.77432,1.136677 z"
     id="spot03"
     style="display:inline;stroke-width:0.101218"
     inkscape:label="spot03"
     class="spot" /></svg>
