<svg xmlns="http://www.w3.org/2000/svg" xmlns:xlink="http://www.w3.org/1999/xlink" version="1.1" x="0px" y="0px" viewBox="0 0 512 640" style="enable-background:new 0 0 512 512;" xml:space="preserve"><path d="M416,360c0-4.4-3.6-8-8-8H280v-6.1l4.6-9.2c2.2-4.4,3.4-9.3,3.4-14.3V304c0-17.7-14.3-32-32-32s-32,14.3-32,32v18.3  c0,5,1.2,9.9,3.4,14.3l4.6,9.2v6.1H104c-4.4,0-8,3.6-8,8c0,22.1,17.9,40,40,40h64v96h16V392c0-4.4-3.6-8-8-8h-72  c-10.2,0-19.2-6.4-22.6-16H240c4.4,0,8-3.6,8-8v-16c0-1.2-0.3-2.5-0.8-3.6l-5.5-10.9c-1.1-2.2-1.7-4.7-1.7-7.2V304  c0-8.8,7.2-16,16-16c8.8,0,16,7.2,16,16v18.3c0,2.5-0.6,4.9-1.7,7.2l-5.5,10.9c-0.6,1.1-0.8,2.3-0.8,3.6v16c0,4.4,3.6,8,8,8h126.6  c-3.4,9.6-12.5,16-22.6,16h-72c-4.4,0-8,3.6-8,8v104h16v-96h64C398.1,400,416,382.1,416,360z"/><rect x="168" y="224" width="64" height="16"/><rect x="168" y="256" width="64" height="16"/><path d="M165.9,172l13.8-8c-6.4-11-10.3-23.3-11.4-36H192v-16h-23.6c3.9-42.3,37.4-75.7,79.6-79.6V56h16V32.4  c42.3,3.9,75.7,37.4,79.6,79.6H320v16h23.6c-1.1,12.7-5,25-11.4,36l13.8,8C374.8,122.3,357.7,58.7,308,30S194.6,18.3,165.9,68.1  C147.4,100.2,147.4,139.8,165.9,172L165.9,172z"/><path d="M214.1,172.5l62.2-28.3c1.8-0.8,3.2-2.2,4-4l28.3-62.2c1.8-4,0.1-8.8-4-10.6c-2.1-1-4.5-1-6.6,0l-62.2,28.3  c-1.8,0.8-3.2,2.2-4,4l-28.3,62.2c-1.8,4,0,8.8,4,10.6C209.5,173.5,212,173.5,214.1,172.5z M270.5,123.2l-17.6-17.6l32.3-14.7  L270.5,123.2z M241.5,116.8l17.6,17.6l-32.3,14.7L241.5,116.8z"/><path d="M75.6,388.8c-73.4-99.7-52-239.9,47.6-313.3c12.5-9.2,25.9-17.1,40.1-23.5l-6.6-14.6C36,92.4-17.4,234.7,37.5,355.4  c27.8,61.2,80.1,107.9,144,128.8l5-15.2C142,454.6,103.2,426.5,75.6,388.8z"/><path d="M456.8,124.5c-24.9-38-60.1-68.2-101.5-87L348.7,52c112.7,51.2,162.4,184.1,111.2,296.8c-26,57.1-74.7,100.7-134.4,120.2  l5,15.2c126-41.2,194.8-176.8,153.6-302.8C477.6,161.3,468.4,142.1,456.8,124.5z"/><path d="M376,328V192c0-4.4-3.6-8-8-8h-80c-12.6,0-24.5,5.9-32,16c-7.5-10.1-19.4-16-32-16h-80c-4.4,0-8,3.6-8,8v136  c0,4.4,3.6,8,8,8h64v-16h-56v-16h56v-16h-56v-88h72c13.2,0,24,10.8,24,24v32h16v-32c0-13.2,10.8-24,24-24h72v88h-56v16h56v16h-56v16  h64C372.4,336,376,332.4,376,328z"/><rect x="280" y="224" width="64" height="16"/><rect x="280" y="256" width="64" height="16"/><path d="M134.3,118l-10.6-12c-6.3,5.5-12.2,11.4-17.7,17.7l12,10.6C123.1,128.5,128.5,123.1,134.3,118z"/><path d="M93.5,139.3c-41.9,58.4-49.3,134.7-19.4,200l14.5-6.7c-27.5-60.1-20.7-130.3,17.8-184L93.5,139.3z"/><path d="M437.9,339.3c29.9-65.3,22.5-141.6-19.4-200l-13,9.3c38.5,53.7,45.3,123.9,17.8,184L437.9,339.3z"/><path d="M388.3,106l-10.6,12c5.8,5.1,11.2,10.5,16.3,16.3l12-10.6C400.5,117.4,394.6,111.5,388.3,106z"/><text x="0" y="527" fill="#000000" font-size="5px" font-weight="bold" font-family="'Helvetica Neue', Helvetica, Arial-Unicode, Arial, Sans-serif">Created by WiStudio</text><text x="0" y="532" fill="#000000" font-size="5px" font-weight="bold" font-family="'Helvetica Neue', Helvetica, Arial-Unicode, Arial, Sans-serif">from the Noun Project</text></svg>