<?xml version="1.0" encoding="UTF-8" standalone="no"?>
<svg
   version="1.1"
   viewBox="-5.0 -10.0 110.0 135.0"
   id="svg7"
   sodipodi:docname="noun-optimization-7479248.svg"
   inkscape:version="1.4 (86a8ad7, 2024-10-11)"
   xmlns:inkscape="http://www.inkscape.org/namespaces/inkscape"
   xmlns:sodipodi="http://sodipodi.sourceforge.net/DTD/sodipodi-0.dtd"
   xmlns="http://www.w3.org/2000/svg"
   xmlns:svg="http://www.w3.org/2000/svg">
  <defs
     id="defs7" />
  <sodipodi:namedview
     id="namedview7"
     pagecolor="#ffffff"
     bordercolor="#000000"
     borderopacity="0.25"
     inkscape:showpageshadow="2"
     inkscape:pageopacity="0.0"
     inkscape:pagecheckerboard="0"
     inkscape:deskcolor="#d1d1d1"
     inkscape:zoom="8.5376597"
     inkscape:cx="76.953173"
     inkscape:cy="74.31779"
     inkscape:window-width="1920"
     inkscape:window-height="1017"
     inkscape:window-x="-8"
     inkscape:window-y="-8"
     inkscape:window-maximized="1"
     inkscape:current-layer="svg7" />
  <path
     d="m42.742 49.82h-3.0117c-0.80078 0-1.4492 0.68359-1.4492 1.4844v5.1055c1.332 2.4414 3.3906 4.3828 5.9062 5.6016v-10.711c0-0.80078-0.64844-1.4844-1.4492-1.4844z"
     id="path1"
     style="fill:#3f6eb5;fill-opacity:1" />
  <path
     d="m51.281 46.199h-3.0117c-0.80078 0-1.4492 0.68359-1.4492 1.4883v15.281c1.0273 0.26562 2.0586 0.38281 3.1641 0.38281 0.95312 0 1.8672-0.11328 2.7461-0.30469v-15.359c0-0.80078-0.64844-1.4883-1.4492-1.4883z"
     id="path2"
     style="fill:#3f6eb5;fill-opacity:1" />
  <path
     d="m59.816 42.617h-2.9727c-0.83984 0-1.4844 0.64844-1.4844 1.4492v18.145c2.4766-1.0664 4.5352-2.8984 5.9453-5.1836v-12.957c0-0.80078-0.6875-1.4492-1.4883-1.4492z"
     id="path3"
     style="fill:#3f6eb5;fill-opacity:1" />
  <path
     d="m93.094 29.992c-0.51172-1.1016-1.8203-1.5781-2.918-1.0625-1.1016 0.51172-1.5742 1.8203-1.0625 2.9219 7.6094 16.34 4.1484 35.891-8.6133 48.652-16.758 16.758-43.996 16.793-60.828 0.12891h4.3008c1.2148 0 2.1953-0.98437 2.1953-2.1953 0-1.2148-0.98438-2.1953-2.1953-2.1953h-9.6094c-1.2148 0-2.1953 0.98437-2.1953 2.1953v9.6133c0 1.2109 0.98438 2.1953 2.1953 2.1953 1.2148 0 2.1953-0.98438 2.1953-2.1953v-4.3164c9.25 9.1719 21.352 13.766 33.461 13.766 12.164-0.003906 24.328-4.6289 33.59-13.891 14.066-14.062 17.879-35.609 9.4922-53.613z"
     id="path4"
     style="fill:#3f6eb5;fill-opacity:1" />
  <path
     d="m19.504 19.508c16.777-16.77 44.023-16.812 60.848-0.14844h-4.3086c-1.2148 0-2.1953 0.98438-2.1953 2.1953 0 1.2109 0.98438 2.1953 2.1953 2.1953h9.6094c1.2148 0 2.1953-0.98438 2.1953-2.1953v-9.6094c0-1.2148-0.98438-2.1953-2.1953-2.1953-1.2148 0-2.1953 0.98438-2.1953 2.1953v4.3086c-18.531-18.387-48.574-18.344-67.059 0.14844-14.066 14.066-17.879 35.609-9.4922 53.617 0.37109 0.80078 1.1641 1.2695 1.9922 1.2695 0.30859 0 0.625-0.066406 0.92578-0.20703 1.1016-0.51562 1.5742-1.8203 1.0625-2.9219-7.6133-16.34-4.1523-35.891 8.6133-48.652z"
     id="path5"
     style="fill:#3f6eb5;fill-opacity:1" />
  <path
     d="m80.047 56.688c1.5977-0.23438 2.7773-1.6016 2.7773-3.2148v-6.9414c0-1.6133-1.1836-2.9805-2.7773-3.2148l-4.4805-0.65234c-1.0117-2.4453-1.2852-3.1055-2.2969-5.5508l2.707-3.6289c0.96484-1.293 0.83594-3.0977-0.30859-4.2383l-4.9141-4.9141c-1.1406-1.1406-2.9414-1.2695-4.2344-0.30859l-3.625 2.7109c-2.4492-1.0156-3.1016-1.2852-5.5547-2.3008l-0.64844-4.4805c-0.23047-1.5938-1.6016-2.7812-3.2148-2.7812h-6.9453c-1.6133 0-2.9805 1.1836-3.2148 2.7812l-0.65234 4.4805c-2.4492 1.0117-3.1055 1.2852-5.5547 2.2969l-3.6289-2.7109c-1.293-0.96484-3.0977-0.83594-4.2383 0.30859l-4.9141 4.9141c-1.1406 1.1406-1.2695 2.9453-0.30469 4.2383l2.707 3.6289c-1.0156 2.4453-1.2852 3.1055-2.2969 5.5508l-4.4883 0.65625c-1.5938 0.23438-2.7773 1.5977-2.7773 3.207v6.9453c0 1.6133 1.1836 2.9805 2.7812 3.2148l4.4766 0.65234c1.0156 2.4492 1.2852 3.1055 2.3008 5.5547l-2.707 3.6289c-0.96484 1.293-0.83594 3.0977 0.30859 4.2383l4.9102 4.9102c1.1445 1.1406 2.9492 1.2695 4.2422 0.30469l3.6211-2.7031c2.4492 1.0156 3.1016 1.2852 5.5508 2.2969l0.65234 4.4844c0.23437 1.5938 1.6016 2.7773 3.2148 2.7773h6.9492c1.6133 0 2.9805-1.1836 3.2148-2.7812l0.64844-4.4805c2.4492-1.0156 3.1016-1.2852 5.5547-2.3008l3.6211 2.7031c1.293 0.96484 3.1016 0.83594 4.2422-0.30469l4.9102-4.9102c1.1406-1.1406 1.2734-2.9453 0.30859-4.2383l-2.7188-3.6445c1.0117-2.4414 1.2812-3.0938 2.293-5.5352l4.4961-0.65234zm-30.047 10.078c-9.2617 0-16.766-7.5039-16.766-16.766s7.5039-16.766 16.766-16.766 16.766 7.5039 16.766 16.766-7.5039 16.766-16.766 16.766z"
     id="path6"
     style="fill:#3f6eb5;fill-opacity:1" />
</svg>
