<svg xmlns="http://www.w3.org/2000/svg" version="1.1" viewBox="-5.0 -10.0 110.0 135.0">
 <path d="m50 37.969c-6.6367 0-12.031 5.3984-12.031 12.031 0 6.6367 5.3984 12.031 12.031 12.031s12.027-5.3984 12.027-12.031c0-6.6367-5.3945-12.031-12.027-12.031zm0 20.969c-4.9297 0-8.9375-4.0078-8.9375-8.9375s4.0078-8.9375 8.9375-8.9375c4.9258 0 8.9297 4.0078 8.9297 8.9375s-4.0039 8.9375-8.9297 8.9375zm38.898-14.082c-2.3008 0-4.25 1.5117-4.9102 3.5938h-8.1523v-0.54688c0-1.2148-0.77344-2.2812-1.918-2.6445l-2.957-0.96484c-0.47656-1.7656-1.1836-3.4766-2.1055-5.0859l1.4062-2.7695c0.55078-1.0781 0.34766-2.375-0.50781-3.2305l-0.39062-0.39062 4.7266-4.7266c0.28906-0.28906 0.45312-0.68359 0.45312-1.0938v-4.8281c2.0859-0.65625 3.6016-2.6094 3.6016-4.9062 0-2.8398-2.3086-5.1484-5.1484-5.1484-2.8359 0-5.1445 2.3086-5.1445 5.1484 0 2.2969 1.5117 4.2461 3.5938 4.9062v4.1875l-4.2734 4.2734-0.38672-0.38672c-0.85938-0.85938-2.1641-1.0625-3.2344-0.51172l-2.7656 1.4102c-1.6133-0.92188-3.3242-1.6328-5.0859-2.1055l-0.96484-2.9609c-0.37891-1.1484-1.4414-1.918-2.6445-1.918h-0.54688l0.007812-13.602c2.082-0.66016 3.5938-2.6094 3.5938-4.9062 0-2.8398-2.3086-5.1484-5.1445-5.1484-2.8398 0-5.1484 2.3086-5.1484 5.1484 0 2.2969 1.5156 4.2461 3.6016 4.9062v13.605h-0.55078c-1.2031 0-2.2656 0.76953-2.6445 1.9258l-0.96484 2.957c-1.7695 0.48047-3.4805 1.1875-5.0859 2.1055l-2.7695-1.4102c-1.0781-0.54688-2.3789-0.33984-3.2305 0.51172l-0.38672 0.38672-4.2734-4.2734v-4.1875c2.082-0.66016 3.5938-2.6094 3.5938-4.9062 0-2.8398-2.3086-5.1484-5.1445-5.1484-2.8398 0-5.1484 2.3086-5.1484 5.1484 0 2.2969 1.5156 4.2461 3.6016 4.9062v4.8281c0 0.41016 0.16406 0.80469 0.45312 1.0938l4.7266 4.7266-0.39062 0.39062c-0.85547 0.85547-1.0586 2.1523-0.51172 3.2266l1.4102 2.7734c-0.92188 1.6094-1.6289 3.3203-2.1094 5.0898l-2.9453 0.95703c-1.1523 0.36719-1.9258 1.4336-1.9258 2.6484v0.54688h-8.1523c-0.66016-2.082-2.6094-3.5938-4.9102-3.5938-2.8359 0-5.1445 2.3086-5.1445 5.1445 0 2.8398 2.3086 5.1484 5.1445 5.1484 2.3008 0 4.2539-1.5156 4.9102-3.6016h8.1523v0.54687c0 1.207 0.76953 2.2695 1.9219 2.6523l2.9492 0.95312c0.48047 1.7695 1.1875 3.4805 2.1094 5.0898l-1.4062 2.7695c-0.55078 1.0781-0.34766 2.3789 0.51172 3.2383l0.38672 0.38672-4.7227 4.7227c-0.28906 0.28906-0.45312 0.68359-0.45312 1.0938v4.8281c-2.0859 0.66016-3.6016 2.6094-3.6016 4.9102 0 2.8359 2.3086 5.1445 5.1484 5.1445 2.8359 0 5.1445-2.3086 5.1445-5.1445 0-2.3008-1.5117-4.25-3.5938-4.9102v-4.1875l4.2734-4.2734 0.37891 0.37891c0.85156 0.86328 2.1523 1.0742 3.2422 0.52344l2.7578-1.4102c1.5898 0.91016 3.2969 1.6172 5.0938 2.1094l0.96094 2.9492c0.375 1.1484 1.4375 1.9219 2.6445 1.9219h0.55078v13.605c-2.0859 0.66016-3.6016 2.6094-3.6016 4.9102 0 2.8359 2.3086 5.1445 5.1484 5.1445 2.8359 0 5.1445-2.3086 5.1445-5.1445 0-2.3008-1.5117-4.25-3.5938-4.9102v-13.613h0.54688c1.207 0 2.2695-0.77344 2.6445-1.9258l0.96094-2.9492c1.7852-0.48828 3.4922-1.1953 5.0938-2.1094l2.7656 1.4141c1.0859 0.55078 2.3867 0.33984 3.2266-0.51562l0.38672-0.38672 4.2734 4.2734v4.1875c-2.082 0.66016-3.5938 2.6094-3.5938 4.9102 0 2.8359 2.3086 5.1445 5.1445 5.1445 2.8398 0 5.1484-2.3086 5.1484-5.1445 0-2.3008-1.5156-4.2539-3.6016-4.9102v-4.8281c0-0.41016-0.16406-0.80469-0.45312-1.0938l-4.7227-4.7227 0.38672-0.38672c0.85547-0.85547 1.0586-2.1562 0.51172-3.2305l-1.4102-2.7734c0.92188-1.6055 1.6289-3.3164 2.1094-5.0898l2.9609-0.95703c1.1445-0.37891 1.9141-1.4414 1.9141-2.6484v-0.54688h8.1523c0.66016 2.0859 2.6094 3.6016 4.9102 3.6016 2.8398 0 5.1484-2.3086 5.1484-5.1484-0.007813-2.8398-2.3164-5.1484-5.1562-5.1484zm-15.906-29.641c1.1328 0 2.0547 0.92188 2.0547 2.0547 0 1.1289-0.92188 2.0469-2.0547 2.0469-1.1289 0-2.0469-0.91797-2.0469-2.0469 0-1.1328 0.91797-2.0547 2.0469-2.0547zm-22.992-11.617c1.1289 0 2.0469 0.92188 2.0469 2.0547 0 1.1289-0.91797 2.0469-2.0469 2.0469-1.1328 0-2.0547-0.91797-2.0547-2.0469 0-1.1367 0.92188-2.0547 2.0547-2.0547zm-22.996 11.617c1.1289 0 2.0469 0.92188 2.0469 2.0547 0 1.1289-0.91797 2.0469-2.0469 2.0469-1.1328 0-2.0547-0.91797-2.0547-2.0469 0-1.1328 0.92188-2.0547 2.0547-2.0547zm-15.906 36.84c-1.1289 0-2.0469-0.92188-2.0469-2.0547 0-1.1289 0.91797-2.0469 2.0469-2.0469 1.1328 0 2.0547 0.91797 2.0547 2.0469-0.003906 1.1328-0.92188 2.0547-2.0547 2.0547zm15.906 32.73c-1.1328 0-2.0547-0.91797-2.0547-2.0469 0-1.1328 0.92188-2.0508 2.0547-2.0508 1.1289 0 2.0469 0.92188 2.0469 2.0508 0 1.1289-0.91797 2.0469-2.0469 2.0469zm22.996 11.617c-1.1328 0-2.0547-0.91797-2.0547-2.0469 0-1.1328 0.92188-2.0508 2.0547-2.0508 1.1289 0 2.0469 0.92187 2.0469 2.0508 0 1.1289-0.91797 2.0469-2.0469 2.0469zm22.992-11.617c-1.1289 0-2.0469-0.91797-2.0469-2.0469 0-1.1328 0.91797-2.0508 2.0469-2.0508 1.1328 0 2.0547 0.92188 2.0547 2.0508 0 1.1289-0.92188 2.0469-2.0547 2.0469zm-0.25391-32.914-2.9102 0.94141c-0.91406 0.30469-1.5781 1.0156-1.8203 1.9414-0.42187 1.6094-1.0664 3.1641-1.918 4.625-0.48438 0.83984-0.51172 1.8125-0.074219 2.6602l1.3828 2.7227-1.293 1.2891c-0.011719 0.007813-0.019531 0.019531-0.03125 0.027344-0.007813 0.007813-0.015625 0.019531-0.027344 0.027344l-1.293 1.293-2.7148-1.3867c-0.86328-0.4375-1.8359-0.40625-2.6641 0.082031-1.4414 0.84375-3.0039 1.4883-4.625 1.9141-0.94141 0.24219-1.6484 0.91406-1.9453 1.8281l-0.94531 2.8984h-3.7344l-0.94141-2.8906c-0.29688-0.92578-1.0039-1.5938-1.9375-1.8359-1.6328-0.43359-3.1914-1.0781-4.6289-1.9141-0.83594-0.49219-1.8086-0.52344-2.6758-0.082031l-2.7109 1.3867-1.2969-1.293c-0.007813-0.007813-0.015625-0.019531-0.027344-0.027344-0.011719-0.011719-0.019531-0.019531-0.03125-0.027344l-1.293-1.2891 1.3828-2.7148c0.44141-0.85938 0.41406-1.8281-0.070313-2.6719-0.85156-1.457-1.4961-3.0117-1.9141-4.6172-0.24219-0.93359-0.90625-1.6406-1.832-1.9492l-2.8945-0.9375v-3.7344l2.8906-0.94141c0.90625-0.28906 1.5938-1.0156 1.8359-1.9414 0.42188-1.6133 1.0664-3.168 1.9141-4.6211 0.48438-0.82422 0.51172-1.8242 0.078125-2.6719l-1.3828-2.7188 2.6367-2.6367 2.7188 1.3867c0.86328 0.4375 1.8398 0.41016 2.6641-0.074219 1.4531-0.84766 3.0117-1.4922 4.6289-1.918 0.003907 0 0.011719-0.003906 0.015625-0.003906 0.93359-0.25391 1.6367-0.92578 1.9258-1.832l0.94531-2.8984h3.7344l0.94141 2.8906c0.29297 0.91406 0.99609 1.5859 1.9414 1.8438 1.6133 0.42188 3.168 1.0664 4.6211 1.9141 0.83203 0.48828 1.8047 0.51953 2.6719 0.078126l2.7148-1.3828 2.6367 2.6367-1.3789 2.7109c-0.4375 0.85156-0.41016 1.8516 0.070313 2.6719 0.85156 1.4609 1.4961 3.0156 1.918 4.6289 0.24219 0.92969 0.93359 1.6562 1.8359 1.9375l2.8945 0.94141zm16.16 0.18359c-1.1328 0-2.0547-0.92188-2.0547-2.0547 0-1.1289 0.92188-2.0469 2.0547-2.0469 1.1289 0 2.0508 0.91797 2.0508 2.0469 0 1.1328-0.92188 2.0547-2.0508 2.0547z"/>
<text x="0.0" y="117.5" font-size="5.0" font-weight="bold" font-family="Arbeit Regular, Helvetica, Arial-Unicode, Arial, Sans-serif" fill="#000000">Created by nangicon</text><text x="0.0" y="122.5" font-size="5.0" font-weight="bold" font-family="Arbeit Regular, Helvetica, Arial-Unicode, Arial, Sans-serif" fill="#000000">from Noun Project</text></svg>